<svg height="512pt" viewBox="0 -17 512.001 512" width="512pt" xmlns="http://www.w3.org/2000/svg"><path d="m488.183594 478.914062h-464.367188c-13.152344 0-23.816406-10.660156-23.816406-23.816406v-427.867187c0-15.039063 12.191406-27.230469 27.230469-27.230469h455.542969c16.140624 0 29.226562 13.085938 29.226562 29.230469v425.867187c0 13.15625-10.664062 23.816406-23.816406 23.816406zm0 0" fill="#f4f4f4"/><path d="m482.773438 0h-11.269532c2.625 4.035156 4.160156 8.851562 4.160156 14.023438v450.867187c0 5.175781-1.535156 9.988281-4.160156 14.023437h16.679688c13.15625 0 23.816406-10.660156 23.816406-23.816406v-425.867187c0-16.144531-13.085938-29.230469-29.226562-29.230469zm0 0" fill="#e8e8e8"/><path d="m0 92.164062h512v-67.628906c0-13.550781-10.984375-24.535156-24.535156-24.535156h-462.929688c-13.550781 0-24.535156 10.988281-24.535156 24.535156zm0 0" fill="#fa5d72"/><path d="m487.464844 0h-15.960938c2.625 4.035156 4.160156 8.851562 4.160156 14.023438v78.140624h36.335938v-67.628906c0-13.546875-10.984375-24.535156-24.535156-24.535156zm0 0" fill="#e35567"/><path d="m79.640625 46.082031c0 10.046875-8.140625 18.1875-18.1875 18.1875-10.042969 0-18.183594-8.140625-18.183594-18.1875 0-10.042969 8.140625-18.183593 18.183594-18.183593 10.046875 0 18.1875 8.140624 18.1875 18.183593zm0 0" fill="#279463"/><path d="m141.207031 46.082031c0 10.046875-8.144531 18.1875-18.1875 18.1875-10.046875 0-18.1875-8.140625-18.1875-18.1875 0-10.042969 8.140625-18.183593 18.1875-18.183593 10.042969 0 18.1875 8.140624 18.1875 18.183593zm0 0" fill="#f6d867"/><path d="m202.769531 46.082031c0 10.046875-8.144531 18.1875-18.1875 18.1875s-18.1875-8.140625-18.1875-18.1875c0-10.042969 8.144531-18.183593 18.1875-18.183593s18.1875 8.140624 18.1875 18.183593zm0 0" fill="#4c7eb0"/><path d="m363.289062 427.058594h-214.578124c-22.390626 0-40.542969-18.152344-40.542969-40.542969v-162.230469c0-22.390625 18.152343-40.542968 40.542969-40.542968h214.578124c22.390626 0 40.542969 18.152343 40.542969 40.542968v162.230469c0 22.390625-18.152343 40.542969-40.542969 40.542969zm0 0" fill="#9c9a9b"/><path d="m363.289062 183.742188h-16.574218c10.660156 8.222656 17.535156 21.117187 17.535156 35.621093v172.070313c0 14.507812-6.875 27.398437-17.535156 35.625h16.574218c22.390626 0 40.542969-18.152344 40.542969-40.542969v-162.230469c0-22.390625-18.152343-40.542968-40.542969-40.542968zm0 0" fill="#858384"/><path d="m333.265625 183.742188h-154.53125v-23.582032c0-9.644531 7.820313-17.460937 17.464844-17.460937h119.601562c9.644531 0 17.460938 7.816406 17.460938 17.460937v23.582032zm0 0" fill="#495663"/><path d="m315.800781 142.699219h-25.144531c6.015625 3.582031 10.054688 10.125 10.054688 17.632812v23.410157h32.550781v-23.582032c.003906-9.644531-7.816407-17.460937-17.460938-17.460937zm0 0" fill="#3a444f"/><path d="m270.078125 53.808594h188.179687c4.269532 0 7.726563-3.457032 7.726563-7.726563 0-4.265625-3.457031-7.722656-7.726563-7.722656h-188.179687c-4.265625 0-7.726563 3.457031-7.726563 7.722656 0 4.269531 3.460938 7.726563 7.726563 7.726563zm0 0" fill="#495663"/><path d="m169.121094 301.785156c5.457031 0 6.722656-4.433594 20.605468-17.402344 14.042969 13.121094 15.15625 17.402344 20.601563 17.402344 6.824219 0 10.347656-8.308594 5.464844-13.191406l-15.140625-15.140625 15.140625-15.136719c3.015625-3.019531 3.015625-7.910156 0-10.929687-3.019531-3.015625-7.910157-3.015625-10.929688 0l-15.136719 15.140625-15.140624-15.140625c-3.019532-3.015625-7.910157-3.015625-10.929688 0-3.015625 3.019531-3.015625 7.910156 0 10.929687l15.140625 15.136719-15.140625 15.140625c-4.878906 4.882812-1.355469 13.191406 5.464844 13.191406zm0 0" fill="#e35567"/><path d="m301.671875 301.785156c5.457031 0 6.722656-4.433594 20.605469-17.402344l15.136718 15.140626c3.019532 3.015624 7.910157 3.015624 10.929688 0 3.015625-3.019532 3.015625-7.910157 0-10.929688l-15.140625-15.140625 15.140625-15.140625c3.015625-3.015625 3.015625-7.90625 0-10.925781-3.019531-3.015625-7.910156-3.015625-10.929688 0l-15.136718 15.140625-15.140625-15.140625c-3.019531-3.015625-7.910157-3.015625-10.925781 0-3.019532 3.015625-3.019532 7.90625 0 10.925781l15.136718 15.140625-15.136718 15.140625c-4.882813 4.882812-1.363282 13.191406 5.460937 13.191406zm0 0" fill="#e35567"/><path d="m185.4375 362.910156h141.125c4.269531 0 7.726562-3.460937 7.726562-7.726562 0-4.269532-3.457031-7.726563-7.726562-7.726563h-141.125c-4.265625 0-7.726562 3.457031-7.726562 7.726563 0 4.265625 3.460937 7.726562 7.726562 7.726562zm0 0" fill="#495663"/></svg>