<?xml version="1.0" encoding="iso-8859-1"?>
<!-- Generator: Adobe Illustrator 19.0.0, SVG Export Plug-In . SVG Version: 6.00 Build 0)  -->
<svg version="1.1" id="Capa_1" xmlns="http://www.w3.org/2000/svg" xmlns:xlink="http://www.w3.org/1999/xlink" x="0px" y="0px"
	 viewBox="0 0 488 488" style="enable-background:new 0 0 488 488;" xml:space="preserve">
<path style="fill:#DBE6FD;" d="M408,166.386c0,41.189-16.619,97.556-43.854,145.762C347.75,341.169,312,394.16,312,427.439h-72
	V11.72C332.784,11.72,408,78.718,408,166.386L408,166.386z"/>
<path style="fill:#FFD700;" d="M72,166.667c0,41.189,16.619,97.556,43.854,145.762C132.25,341.45,168,394.441,168,427.72h72V12.001
	C147.216,12.001,72,78.999,72,166.667L72,166.667z"/>
<g>
	<path style="fill:#0A9EC1;" d="M324.555,391.204l-14.875-5.891c2.155-5.362,4.651-10.581,7.473-15.625l14.008,7.734
		C328.667,381.872,326.461,386.475,324.555,391.204L324.555,391.204z"/>
	<path style="fill:#0A9EC1;" d="M339.297,363.947l-13.43-8.688c3-4.641,6.137-9.234,9.281-13.75l13.133,9.141
		C345.238,355.025,342.203,359.462,339.297,363.947L339.297,363.947z"/>
	<path style="fill:#0A9EC1;" d="M357.629,337.275l-13.141-9.125c3.152-4.547,6.16-8.977,8.859-13.258l13.539,8.516
		C364.07,327.892,360.93,332.525,357.629,337.275z"/>
	<path style="fill:#0A9EC1;" d="M375.277,308.782l-14.109-7.547c2.5-4.68,4.897-9.422,7.191-14.227l14.438,6.891
		C380.402,298.915,377.896,303.876,375.277,308.782z"/>
	<path style="fill:#0A9EC1;" d="M389.648,278.728l-14.727-6.266c2.094-4.914,4.074-9.867,5.934-14.812l14.977,5.625
		C393.895,268.439,391.833,273.59,389.648,278.728z"/>
	<path style="fill:#0A9EC1;" d="M415.324,182.087l-15.945-1.344c0.414-4.875,0.621-9.617,0.621-14.078l-0.008-1.469l16-0.125
		l0.008,1.594C416,171.579,415.773,176.767,415.324,182.087z"/>
	<path style="fill:#0A9EC1;" d="M399.004,149.822c-0.606-5.1-1.495-10.163-2.664-15.164l15.578-3.641
		c1.304,5.579,2.298,11.225,2.977,16.914L399.004,149.822z"/>
	<path style="fill:#0A9EC1;" d="M392.004,119.892c-1.727-4.841-3.72-9.582-5.969-14.203l14.383-7
		c2.512,5.153,4.734,10.443,6.656,15.844L392.004,119.892z"/>
	<path style="fill:#0A9EC1;" d="M378.531,92.251c-2.757-4.348-5.743-8.546-8.945-12.578l12.531-9.953
		c3.558,4.482,6.875,9.15,9.938,13.984L378.531,92.251z"/>
	<path style="fill:#0A9EC1;" d="M359.348,68.095c-3.62-3.679-7.426-7.171-11.402-10.461l10.195-12.328
		c4.399,3.639,8.609,7.501,12.613,11.57L359.348,68.095z"/>
	<path style="fill:#0A9EC1;" d="M335.52,48.345c-4.25-2.859-8.723-5.563-13.293-8.031l7.609-14.078
		c5.023,2.719,9.938,5.688,14.613,8.828L335.52,48.345z"/>
	<path style="fill:#0A9EC1;" d="M308.211,33.595c-4.691-1.992-9.594-3.805-14.578-5.383l4.844-15.25
		c5.457,1.734,10.84,3.719,15.992,5.914L308.211,33.595z"/>
	<path style="fill:#0A9EC1;" d="M278.586,24.173c-5.023-1.117-10.188-2.016-15.348-2.68l2.047-15.875
		c5.633,0.734,11.273,1.719,16.762,2.93L278.586,24.173z"/>
</g>
<path style="fill:#2D8AF9;" d="M305.951,451.72H174.049c-8.837,0-16-7.163-16-16v-0.561c0.097-8.328,6.926-15.001,15.254-14.904
	c0.249,0.003,0.498,0.012,0.746,0.027h131.902c8.313-0.509,15.464,5.818,15.973,14.131c0.015,0.249,0.024,0.497,0.027,0.746v0.561
	C321.951,444.557,314.788,451.72,305.951,451.72z"/>
<path style="fill:#086AF9;" d="M172,451.72h136c8.837,0,16,7.163,16,16v0.56c0,8.837-7.163,16-16,16H172c-8.837,0-16-7.163-16-16
	v-0.56C156,458.883,163.163,451.72,172,451.72z"/>
<path style="fill:#F4393D;" d="M240,131.72v-48c-4.562,0.028-9.118,0.332-13.643,0.913l-3.51,16.703
	c-5.18,0.944-10.272,2.316-15.225,4.103L196.157,92.64c-8.36,3.603-16.248,8.214-23.489,13.731l5.303,16.146
	c-4.022,3.412-7.757,7.148-11.169,11.17l-16.147-5.304c-5.518,7.241-10.129,15.13-13.732,23.49l12.797,11.466
	c-1.787,4.953-3.159,10.046-4.103,15.226l-16.703,3.511v27.286l16.703,3.51c0.943,5.18,2.316,10.273,4.103,15.225l-12.797,11.465
	c3.603,8.36,8.214,16.248,13.731,23.489l16.146-5.303c3.412,4.022,7.148,7.757,11.17,11.169l-5.304,16.147
	c7.241,5.518,15.13,10.13,23.491,13.733l11.466-12.797c4.953,1.787,10.046,3.16,15.226,4.104l3.511,16.703
	c4.525,0.58,9.081,0.885,13.643,0.913v-48c-35.346,0-64-28.654-64-64S204.654,131.72,240,131.72z"/>
<path style="fill:#3ECCED;" d="M376,195.72c-10.137,0.031-19.158,6.439-22.526,16H312v-32h40c4.417,0.001,7.999-3.579,8-7.996
	c0-0.001,0-0.003,0-0.004v-33.474c12.497-4.418,19.047-18.13,14.629-30.628s-18.13-19.047-30.628-14.629
	c-12.497,4.418-19.047,18.13-14.629,30.628c2.416,6.835,7.793,12.212,14.628,14.629v25.475h-32v-16h-16V98.246
	c12.497-4.418,19.047-18.13,14.629-30.628s-18.13-19.047-30.628-14.629c-12.497,4.418-19.047,18.13-14.629,30.628
	c2.416,6.835,7.793,12.212,14.628,14.629v49.475h-40v96h24v32c-0.001,4.417,3.579,7.999,7.996,8c0.001,0,0.003,0,0.004,0h24v9.474
	c-12.497,4.418-19.046,18.131-14.627,30.627c4.418,12.497,18.131,19.046,30.627,14.627c12.497-4.418,19.046-18.131,14.627-30.627
	c-2.416-6.835-7.793-12.211-14.627-14.627V275.72c0.001-4.417-3.579-7.999-7.996-8c-0.001,0-0.003,0-0.004,0h-24v-24h32v-16h41.475
	c4.442,12.464,18.146,18.967,30.61,14.525s18.967-18.146,14.525-30.61C395.204,202.078,386.146,195.702,376,195.72z"/>
<g>
	<path style="fill:#FFD700;" d="M16,435.72h16v16H16V435.72z"/>
	<path style="fill:#FFD700;" d="M16,467.72h16v16H16V467.72z"/>
	<path style="fill:#FFD700;" d="M32,451.72h16v16H32V451.72z"/>
	<path style="fill:#FFD700;" d="M0,451.72h16v16H0V451.72z"/>
	<path style="fill:#FFD700;" d="M456,3.72h16v16h-16V3.72z"/>
	<path style="fill:#FFD700;" d="M456,35.72h16v16h-16V35.72z"/>
	<path style="fill:#FFD700;" d="M472,19.72h16v16h-16V19.72z"/>
	<path style="fill:#FFD700;" d="M440,19.72h16v16h-16V19.72z"/>
</g>
<g>
</g>
<g>
</g>
<g>
</g>
<g>
</g>
<g>
</g>
<g>
</g>
<g>
</g>
<g>
</g>
<g>
</g>
<g>
</g>
<g>
</g>
<g>
</g>
<g>
</g>
<g>
</g>
<g>
</g>
</svg>
