<svg height="512pt" viewBox="-60 0 512 512.00011" width="512pt" xmlns="http://www.w3.org/2000/svg"><path d="m188.460938 194.179688-151.464844 83.914062 151.464844 83.917969 151.46875-83.917969zm0 0" fill="#fc3e81"/><path d="m339.925781 278.09375-151.460937 83.914062-151.472656-83.914062 19.28125-10.671875 132.191406 73.226563 132.191406-73.226563zm0 0" fill="#f01054"/><path d="m321.699219 133.242188c0 30.304687-10.125 58.25-27.171875 80.628906-21.273438 27.917968-36.78125 59.542968-45.21875 93.078125-2.003906 7.902343-3.605469 15.910156-4.785156 24-.320313 2.109375-.597657 4.226562-.855469 6.34375h-110.414063c-.25-2.117188-.527344-4.234375-.839844-6.34375-1.164062-8.070313-2.738281-16.066407-4.699218-23.949219-8.246094-33.351562-23.441406-64.832031-44.746094-92.375-18.359375-23.761719-28.878906-53.890625-27.660156-86.515625 2.585937-68.695313 58.046875-124.734375 126.71875-127.957031 76.515625-3.605469 139.671875 57.371094 139.671875 133.089844zm0 0" fill="#ffdf46"/><path d="m249.304688 306.949219c-2.003907 7.902343-3.605469 15.910156-4.78125 24l-11.457032 6.34375h-38.539062zm0 0" fill="#f9b200"/><path d="m127.714844 307 54.683594 30.292969h-38.546876l-11.4375-6.34375c-1.167968-8.070313-2.738281-16.066407-4.699218-23.949219zm0 0" fill="#f9b200"/><path d="m321.707031 133.242188c0 30.308593-10.121093 58.242187-27.179687 80.628906-27.597656 36.214844-45.484375 78.667968-50.855469 123.421875h-31.695313c5.367188-44.753907 23.257813-87.207031 50.855469-123.421875 17.054688-22.386719 27.179688-50.320313 27.179688-80.628906 0-68.230469-51.3125-124.511719-117.4375-132.316407 3.128906-.355469 6.277343-.613281 9.449219-.773437 76.507812-3.605469 139.683593 57.371094 139.683593 133.089844zm0 0" fill="#f9b200"/><path d="m262.75 353.140625v81.226563c0 10.941406-8.867188 19.808593-19.808594 19.808593h-108.957031c-10.941406 0-19.816406-8.867187-19.816406-19.808593v-81.226563c0-10.941406 8.875-19.816406 19.816406-19.816406h108.957031c10.941406 0 19.808594 8.875 19.808594 19.816406zm0 0" fill="#a7c7d3"/><path d="m240.234375 333.324219-51.769531 28.683593-51.773438-28.683593h38.546875l13.226563 7.324219 13.222656-7.324219zm0 0" fill="#84a1c0"/><path d="m256.808594 381.691406h-134.714844c-4.277344 0-7.75-3.46875-7.75-7.75s3.472656-7.75 7.75-7.75h134.714844c4.277344 0 7.746094 3.46875 7.746094 7.75s-3.46875 7.75-7.746094 7.75zm0 0"/><path d="m256.808594 421.3125h-134.714844c-4.277344 0-7.75-3.46875-7.75-7.75s3.472656-7.75 7.75-7.75h134.714844c4.277344 0 7.746094 3.46875 7.746094 7.75s-3.46875 7.75-7.746094 7.75zm0 0"/><path d="m265.804688 152.53125c1.3125 3.804688 2.015624 7.886719 2.015624 12.128906 0 20.644532-16.734374 37.382813-37.378906 37.382813-1.425781 0-2.832031-.082031-4.226562-.25-1.839844 10.640625-11.105469 18.742187-22.273438 18.742187h-.175781c-8.492187-.0625-15.300781-7.066406-15.300781-15.558594v-147.875c0-3.019531 1.144531-5.941406 3.210937-8.132812 6.355469-6.734375 15.355469-10.941406 25.332031-10.941406 17.597657 0 32.144532 13.050781 34.488282 30.003906 18.585937 7.285156 31.757812 25.386719 31.757812 46.5625.003906 15.179688-6.765625 28.773438-17.449218 37.9375zm0 0" fill="#fc3e81"/><path d="m226.230469 209.550781c-.398438 0-.804688-.03125-1.210938-.097656-8.773437-1.375-16.925781-5.417969-23.566406-11.695313-3.113281-2.9375-3.25-7.84375-.3125-10.953124 2.941406-3.113282 7.84375-3.25 10.953125-.3125 4.359375 4.117187 9.65625 6.761718 15.328125 7.652343 4.226563.664063 7.117187 4.625 6.453125 8.855469-.597656 3.820312-3.894531 6.550781-7.644531 6.550781zm0 0" fill="#f01054"/><path d="m223.53125 92.414062c-1.53125 1.671876-3.628906 2.519532-5.714844 2.519532-1.878906 0-3.75-.671875-5.238281-2.035156-5.867187-5.382813-13.742187-7.820313-21.582031-6.695313-.867188.125-1.726563.09375-2.53125-.050781v-15.230469c.101562-.03125.214844-.039063.332031-.0625 12.457031-1.785156 24.9375 2.078125 34.246094 10.613281 3.164062 2.890625 3.371093 7.789063.488281 10.941406zm0 0" fill="#f01054"/><path d="m188.464844 57.101562v147.875c0 8.492188-6.808594 15.496094-15.300782 15.558594h-.1875c-11.167968 0-20.433593-8.101562-22.273437-18.742187-1.382813.167969-2.800781.25-4.226563.25-20.644531 0-37.378906-16.738281-37.378906-37.382813 0-4.242187.710938-8.324218 2.015625-12.128906-10.671875-9.164062-17.441406-22.757812-17.441406-37.9375 0-21.179688 13.164063-39.28125 31.757813-46.5625 2.347656-16.953125 16.882812-30.003906 34.476562-30.003906 9.992188 0 18.992188 4.207031 25.335938 10.941406 2.074218 2.191406 3.222656 5.113281 3.222656 8.132812zm0 0" fill="#fd82ac"/><path d="m150.695312 209.550781c-3.75 0-7.046874-2.730469-7.648437-6.550781-.660156-4.226562 2.230469-8.191406 6.457031-8.855469 5.667969-.886719 10.96875-3.535156 15.324219-7.652343 3.109375-2.9375 8.015625-2.796876 10.953125.3125 2.941406 3.109374 2.800781 8.015624-.308594 10.953124-6.644531 6.277344-14.792968 10.320313-23.570312 11.699219-.40625.0625-.808594.09375-1.207032.09375zm0 0" fill="#fd6096"/><path d="m188.464844 70.921875v15.230469c-.804688.144531-1.664063.175781-2.53125.050781-7.84375-1.125-15.714844 1.3125-21.582032 6.695313-1.488281 1.363281-3.367187 2.035156-5.238281 2.035156-2.097656 0-4.183593-.847656-5.714843-2.519532-2.890626-3.152343-2.675782-8.050781.476562-10.941406 9.308594-8.535156 21.789062-12.398437 34.257812-10.613281.113282.023437.226563.035156.332032.0625zm0 0" fill="#fd6096"/><path d="m273.050781 149.777344c-5.496093-14.453125-17.8125-25.0625-32.519531-28.21875-.472656-7.089844-2.648438-13.8125-6.371094-19.59375-2.316406-3.597656-7.109375-4.632813-10.710937-2.320313-3.597657 2.320313-4.632813 7.113281-2.316407 10.710938 2.617188 4.070312 4.003907 8.960937 4.003907 14.152343 0 6.050782-1.914063 11.757813-5.390625 16.070313-2.6875 3.332031-2.160156 8.207031 1.167968 10.894531 1.433594 1.15625 3.152344 1.714844 4.859376 1.714844 2.261718 0 4.507812-.984375 6.039062-2.882812 3.117188-3.867188 5.460938-8.371094 6.949219-13.222657 8.84375 2.453125 16.425781 9.3125 19.804687 18.203125 1.175782 3.09375 4.121094 4.996094 7.242188 4.996094.917968 0 1.847656-.164062 2.753906-.507812 4-1.519532 6.011719-5.992188 4.488281-9.996094zm0 0" fill="#f01054"/><path d="m151.789062 124.507812c0-5.191406 1.382813-10.082031 4.003907-14.148437 2.320312-3.597656 1.28125-8.394531-2.316407-10.710937-3.597656-2.316407-8.394531-1.28125-10.710937 2.316406-3.722656 5.78125-5.898437 12.503906-6.375 19.59375-14.703125 3.160156-27.019531 13.765625-32.519531 28.222656-1.519532 4 .488281 8.476562 4.488281 9.996094.90625.34375 1.839844.507812 2.753906.507812 3.125 0 6.066407-1.902344 7.246094-4.996094 3.378906-8.890624 10.957031-15.753906 19.804687-18.203124 1.488282 4.851562 3.832032 9.351562 6.949219 13.21875 1.53125 1.902343 3.773438 2.886718 6.039063 2.886718 1.707031 0 3.421875-.558594 4.855468-1.714844 3.332032-2.6875 3.855469-7.566406 1.167969-10.894531-3.472656-4.316406-5.386719-10.023437-5.386719-16.074219zm0 0" fill="#fd6096"/><path d="m339.925781 278.09375v145.386719c0 3.75-2.035156 7.210937-5.320312 9.027343l-141.140625 78.203126c-.011719.007812-.03125.007812-.042969.019531-1.546875.855469-3.242187 1.269531-4.957031 1.269531v-149.992188zm0 0" fill="#e29c6d"/><path d="m188.464844 362.007812v149.992188c-1.664063 0-3.328125-.394531-4.847656-1.207031-.050782-.023438-.113282-.054688-.164063-.082031l-141.128906-78.203126c-3.285157-1.816406-5.332031-5.277343-5.332031-9.027343v-145.386719zm0 0" fill="#edb48a"/><path d="m371.652344 352.859375-133.578125 74.007813c-4.851563 2.6875-10.960938 1.015624-13.769531-3.769532l-35.84375-61.085937 151.46875-83.917969 35.585937 60.652344c2.90625 4.953125 1.164063 11.332031-3.863281 14.113281zm0 0" fill="#edb48a"/><path d="m5.269531 352.859375 133.578125 74.007813c4.855469 2.6875 10.964844 1.015624 13.773438-3.769532l35.839844-61.085937-151.464844-83.917969-35.589844 60.652344c-2.90625 4.953125-1.160156 11.332031 3.863281 14.113281zm0 0" fill="#e29c6d"/><path d="m27.488281 216.792969c-4.261719 0-7.726562-3.445313-7.746093-7.710938l-.011719-1.929687c-.019531-4.277344 3.429687-7.765625 7.710937-7.785156h.039063c4.261719 0 7.726562 3.441406 7.746093 7.707031l.011719 1.929687c.019531 4.28125-3.433593 7.765625-7.710937 7.789063-.011719 0-.027344 0-.039063 0zm0 0" fill="#7884ea"/><path d="m27.554688 245.234375c-4.261719 0-7.726563-3.441406-7.75-7.710937l-.007813-1.925782c-.023437-4.28125 3.429687-7.765625 7.707031-7.789062h.039063c4.261719 0 7.726562 3.445312 7.75 7.710937l.007812 1.929688c.023438 4.277343-3.429687 7.765625-7.707031 7.785156-.015625 0-.027344 0-.039062 0zm0 0" fill="#7884ea"/><path d="m40.773438 230.019531c-4.261719 0-7.726563-3.441406-7.746094-7.707031-.023438-4.277344 3.425781-7.765625 7.707031-7.789062l1.929687-.007813h.039063c4.261719 0 7.726563 3.441406 7.75 7.707031.019531 4.277344-3.429687 7.765625-7.710937 7.789063l-1.925782.007812c-.015625 0-.03125 0-.042968 0zm0 0" fill="#7884ea"/><path d="m12.332031 230.085938c-4.261719 0-7.726562-3.441407-7.75-7.707032-.023437-4.277344 3.429688-7.765625 7.707031-7.789062l1.929688-.007813h.042969c4.261719 0 7.722656 3.441407 7.746093 7.707031.023438 4.277344-3.429687 7.765626-7.707031 7.789063l-1.929687.007813c-.011719 0-.027344 0-.039063 0zm0 0" fill="#7884ea"/><path d="m369.253906 166.242188c-4.257812 0-7.726562-3.441407-7.746094-7.710938l-.011718-1.925781c-.019532-4.28125 3.433594-7.765625 7.710937-7.789063h.039063c4.261718 0 7.726562 3.445313 7.75 7.710938l.007812 1.929687c.023438 4.277344-3.429687 7.765625-7.710937 7.785157-.011719 0-.023438 0-.039063 0zm0 0" fill="#9be058"/><path d="m369.320312 194.6875c-4.261718 0-7.726562-3.445312-7.746093-7.710938l-.011719-1.925781c-.023438-4.28125 3.429688-7.769531 7.707031-7.789062h.042969c4.261719 0 7.722656 3.441406 7.746094 7.707031l.011718 1.929688c.019532 4.277343-3.429687 7.765624-7.707031 7.789062-.015625 0-.027343 0-.042969 0zm0 0" fill="#9be058"/><path d="m382.539062 179.472656c-4.261718 0-7.726562-3.445312-7.746093-7.710937-.019531-4.28125 3.433593-7.765625 7.710937-7.785157l1.929688-.011718h.035156c4.265625 0 7.730469 3.445312 7.75 7.714844.019531 4.277343-3.433594 7.761718-7.710938 7.785156l-1.929687.007812c-.011719 0-.027344 0-.039063 0zm0 0" fill="#9be058"/><path d="m354.097656 179.535156c-4.261718 0-7.726562-3.445312-7.75-7.710937-.019531-4.277344 3.433594-7.765625 7.714844-7.785157l1.929688-.007812h.035156c4.261718 0 7.726562 3.445312 7.75 7.710938.019531 4.28125-3.433594 7.765624-7.714844 7.785156l-1.929688.007812c-.011718 0-.023437 0-.035156 0zm0 0" fill="#9be058"/><g fill="#fc3e81"><path d="m40.746094 32.519531c-4.261719 0-7.722656-3.445312-7.746094-7.707031l-.011719-1.929688c-.023437-4.28125 3.429688-7.769531 7.707031-7.789062h.042969c4.261719 0 7.722657 3.441406 7.746094 7.707031l.011719 1.929688c.019531 4.277343-3.429688 7.765625-7.707032 7.789062-.015624 0-.03125 0-.042968 0zm0 0"/><path d="m40.808594 60.960938c-4.257813 0-7.722656-3.441407-7.746094-7.707032l-.011719-1.929687c-.019531-4.277344 3.429688-7.765625 7.710938-7.789063h.039062c4.261719 0 7.726563 3.445313 7.75 7.707032l.007813 1.929687c.023437 4.28125-3.429688 7.769531-7.707032 7.789063-.011718 0-.027343 0-.042968 0zm0 0"/><path d="m54.03125 45.75c-4.261719 0-7.726562-3.445312-7.75-7.707031-.019531-4.28125 3.429688-7.769531 7.710938-7.789063l1.925781-.011718h.042969c4.261718 0 7.722656 3.441406 7.746093 7.707031.023438 4.28125-3.425781 7.769531-7.707031 7.789062l-1.929688.011719c-.011718 0-.027343 0-.039062 0zm0 0"/><path d="m25.585938 45.8125c-4.257813 0-7.722657-3.441406-7.746094-7.707031-.023438-4.28125 3.429687-7.765625 7.707031-7.789063l1.929687-.011718h.039063c4.261719 0 7.726563 3.445312 7.75 7.710937.023437 4.277344-3.429687 7.765625-7.707031 7.789063l-1.929688.007812c-.015625 0-.027344 0-.042968 0zm0 0"/><path d="m339.902344 218.53125c-4.261719 0-7.726563-3.445312-7.75-7.710938l-.007813-1.925781c-.023437-4.28125 3.429688-7.769531 7.707031-7.789062 4.246094.003906 7.765626 3.425781 7.789063 7.707031l.011719 1.929688c.019531 4.277343-3.429688 7.765624-7.710938 7.789062-.011718 0-.027344 0-.039062 0zm0 0"/><path d="m339.964844 246.972656c-4.257813 0-7.722656-3.441406-7.746094-7.707031l-.011719-1.929687c-.019531-4.277344 3.429688-7.765626 7.710938-7.789063h.039062c4.261719 0 7.726563 3.445313 7.75 7.710937l.007813 1.925782c.023437 4.28125-3.429688 7.765625-7.707032 7.789062-.011718 0-.027343 0-.042968 0zm0 0"/><path d="m353.183594 231.761719c-4.257813 0-7.722656-3.445313-7.746094-7.710938-.023438-4.277343 3.429688-7.765625 7.707031-7.789062l1.929688-.007813h.042969c4.257812 0 7.722656 3.441406 7.746093 7.707032.023438 4.277343-3.429687 7.765624-7.707031 7.789062l-1.929688.011719c-.011718 0-.027343 0-.042968 0zm0 0"/><path d="m324.742188 231.824219c-4.261719 0-7.726563-3.441407-7.746094-7.707031-.023438-4.28125 3.425781-7.769532 7.707031-7.789063l1.929687-.011719c4.324219-.011718 7.765626 3.429688 7.789063 7.707032.019531 4.28125-3.429687 7.769531-7.710937 7.789062l-1.925782.011719c-.015625 0-.027344 0-.042968 0zm0 0"/></g><path d="m347.605469 86.925781c-3.363281 0-6.460938-2.207031-7.441407-5.601562-1.1875-4.109375 1.179688-8.40625 5.292969-9.59375l7.914063-2.285157c4.113281-1.191406 8.410156 1.179688 9.59375 5.292969 1.191406 4.109375-1.179688 8.40625-5.292969 9.59375l-7.914063 2.285157c-.71875.210937-1.441406.308593-2.152343.308593zm0 0" fill="#43a3f9"/><path d="m338.710938 68.980469c-1.933594 0-3.867188-.714844-5.371094-2.164063-3.082032-2.964844-3.179688-7.871094-.210938-10.953125l5.710938-5.9375c2.964844-3.082031 7.871094-3.179687 10.957031-.214843 3.082031 2.96875 3.175781 7.875.210937 10.957031l-5.710937 5.9375c-1.519531 1.582031-3.550781 2.375-5.585937 2.375zm0 0" fill="#43a3f9"/><path d="m357.652344 108.824219c-.613282 0-1.242188-.074219-1.863282-.226563l-8-1.980468c-4.152343-1.027344-6.6875-5.226563-5.660156-9.382813 1.027344-4.152344 5.230469-6.6875 9.382813-5.660156l7.996093 1.980469c4.152344 1.027343 6.6875 5.226562 5.660157 9.378906-.871094 3.53125-4.035157 5.890625-7.515625 5.890625zm0 0" fill="#43a3f9"/><path d="m14.691406 154.273438c-4.09375 0-7.515625-3.207032-7.730468-7.34375-.226563-4.273438 3.058593-7.917969 7.332031-8.144532l8.226562-.429687c4.273438-.261719 7.917969 3.058593 8.144531 7.332031.222657 4.273438-3.058593 7.921875-7.335937 8.144531l-8.226563.429688c-.136718.007812-.273437.011719-.410156.011719zm0 0" fill="#ffdf46"/><path d="m25.453125 133.980469c-1.1875 0-2.386719-.273438-3.511719-.847657l-7.34375-3.738281c-3.8125-1.945312-5.328125-6.613281-3.382812-10.421875 1.941406-3.816406 6.609375-5.328125 10.421875-3.386718l7.339843 3.738281c3.8125 1.945312 5.328126 6.609375 3.386719 10.421875-1.371093 2.6875-4.089843 4.234375-6.910156 4.234375zm0 0" fill="#ffdf46"/><path d="m20.617188 177.820312c-2.539063 0-5.023438-1.242187-6.507813-3.527343-2.328125-3.589844-1.308594-8.390625 2.28125-10.71875l6.90625-4.484375c3.589844-2.332032 8.390625-1.3125 10.71875 2.277344 2.332031 3.589843 1.3125 8.386718-2.277344 10.71875l-6.910156 4.484374c-1.304687.847657-2.765625 1.25-4.210937 1.25zm0 0" fill="#ffdf46"/></svg>